<?xml version="1.0" encoding="utf-8"?>
<!-- Generator: Adobe Illustrator 24.1.0, SVG Export Plug-In . SVG Version: 6.00 Build 0)  -->
<svg version="1.1"
	 id="svg8" xmlns:cc="http://creativecommons.org/ns#" xmlns:dc="http://purl.org/dc/elements/1.1/" xmlns:inkscape="http://www.inkscape.org/namespaces/inkscape" xmlns:rdf="http://www.w3.org/1999/02/22-rdf-syntax-ns#" xmlns:sodipodi="http://sodipodi.sourceforge.net/DTD/sodipodi-0.dtd" xmlns:svg="http://www.w3.org/2000/svg"
	 xmlns="http://www.w3.org/2000/svg" xmlns:xlink="http://www.w3.org/1999/xlink" x="0px" y="0px" viewBox="0 0 60 40"
	 style="enable-background:new 0 0 60 40;" xml:space="preserve">
<sodipodi:namedview  bordercolor="#666666" borderopacity="1.0" id="base" inkscape:current-layer="layer6" inkscape:cx="224" inkscape:cy="256" inkscape:document-rotation="0" inkscape:document-units="px" inkscape:guide-bbox="true" inkscape:pageopacity="0.0" inkscape:pageshadow="2" inkscape:window-height="713" inkscape:window-maximized="1" inkscape:window-width="1315" inkscape:window-x="51" inkscape:window-y="27" inkscape:zoom="0.75" pagecolor="#ffffff" showgrid="true" showguides="true" units="px">
	<inkscape:grid  empspacing="4" id="grid10" type="xygrid"></inkscape:grid>
	
		<sodipodi:guide  id="guide832" inkscape:color="rgb(0,0,255)" inkscape:label="" inkscape:locked="true" orientation="0,1" position="448,416">
		</sodipodi:guide>
	
		<sodipodi:guide  id="guide834" inkscape:color="rgb(0,0,255)" inkscape:label="" inkscape:locked="true" orientation="0,1" position="448,96">
		</sodipodi:guide>
	
		<sodipodi:guide  id="guide836" inkscape:color="rgb(0,0,255)" inkscape:label="baseline" inkscape:locked="true" orientation="0,1" position="448,64">
		</sodipodi:guide>
	<sodipodi:guide  id="guide835" orientation="1,0" position="64,512"></sodipodi:guide>
	<sodipodi:guide  id="guide837" orientation="1,0" position="384,512"></sodipodi:guide>
</sodipodi:namedview>
<g id="layer6" inkscape:groupmode="layer" inkscape:label="icon">
	<path id="path2" d="M14.3,0C11.9,0,10,1.9,10,4.3v31.4c0,2.4,1.9,4.3,4.3,4.3h31.4c2.4,0,4.3-1.9,4.3-4.3V4.3C50,1.9,48.1,0,45.7,0
		H14.3z M30,5.7c2,0,3.6,1.6,3.6,3.6c0,1.2-0.6,2.2-1.4,2.9c0-1.2-1-2.1-2.1-2.1c-1.2,0-2.1,1-2.1,2.1c-0.9-0.7-1.4-1.7-1.4-2.9
		C26.4,7.3,28,5.7,30,5.7z M22.4,8.8c0.9,0,1.8,0.3,2.5,1c0.8,0.8,1.2,2,1,3c0,0,0,0,0,0c0.8,0.8,0.8,2.2,0,3c-0.8,0.8-2.2,0.8-3,0
		c0,0,0,0,0,0c-1.1,0.2-2.2-0.2-3-1c-1.4-1.4-1.4-3.7,0-5.1C20.6,9.2,21.5,8.8,22.4,8.8z M37.6,8.8c0.9,0,1.8,0.3,2.5,1
		c1.4,1.4,1.4,3.7,0,5.1c-0.8,0.8-2,1.2-3,1c0,0,0,0,0,0c-0.8,0.8-2.2,0.8-3,0c-0.8-0.8-0.8-2.2,0-3c0,0,0,0,0,0
		c-0.2-1.1,0.2-2.2,1-3C35.7,9.2,36.7,8.8,37.6,8.8z M19.3,16.4c1.2,0,2.2,0.6,2.9,1.4c-1.2,0-2.1,1-2.1,2.1c0,1.2,1,2.1,2.1,2.1
		c-0.7,0.9-1.7,1.4-2.9,1.4c-2,0-3.6-1.6-3.6-3.6S17.3,16.4,19.3,16.4z M40.7,16.4c2,0,3.6,1.6,3.6,3.6c0,2-1.6,3.6-3.6,3.6
		c-1.2,0-2.2-0.6-2.9-1.4c1.2,0,2.1-1,2.1-2.1s-1-2.1-2.1-2.1C38.5,17,39.5,16.4,40.7,16.4z M24.5,23.4c0.6,0,1.1,0.2,1.5,0.6
		c0.8,0.8,0.8,2.2,0,3c0,0,0,0,0,0c0.2,1.1-0.2,2.2-1,3c-1.4,1.4-3.7,1.4-5.1,0c-1.4-1.4-1.4-3.7,0-5.1c0.8-0.8,2-1.2,3-1
		c0,0,0,0,0,0C23.4,23.6,23.9,23.4,24.5,23.4z M35.5,23.4c0.6,0,1.1,0.2,1.5,0.6c0,0,0,0,0,0c1.1-0.2,2.2,0.2,3,1h0
		c1.4,1.4,1.4,3.7,0,5.1c-1.4,1.4-3.7,1.4-5.1,0c-0.8-0.8-1.2-2-1-3c0,0,0,0,0,0c-0.8-0.8-0.8-2.2,0-3C34.4,23.6,35,23.4,35.5,23.4z
		 M27.9,27.8c0,1.2,1,2.1,2.1,2.1s2.1-1,2.1-2.1c0.9,0.7,1.4,1.7,1.4,2.9c0,2-1.6,3.6-3.6,3.6s-3.6-1.6-3.6-3.6
		C26.4,29.5,27,28.5,27.9,27.8z"/>
</g>
</svg>
