<?xml version="1.0" encoding="utf-8"?>
<!-- Generator: Adobe Illustrator 24.1.0, SVG Export Plug-In . SVG Version: 6.00 Build 0)  -->
<svg version="1.1"
	 id="svg8" xmlns:cc="http://creativecommons.org/ns#" xmlns:dc="http://purl.org/dc/elements/1.1/" xmlns:inkscape="http://www.inkscape.org/namespaces/inkscape" xmlns:rdf="http://www.w3.org/1999/02/22-rdf-syntax-ns#" xmlns:sodipodi="http://sodipodi.sourceforge.net/DTD/sodipodi-0.dtd" xmlns:svg="http://www.w3.org/2000/svg"
	 xmlns="http://www.w3.org/2000/svg" xmlns:xlink="http://www.w3.org/1999/xlink" x="0px" y="0px" viewBox="0 0 60 40"
	 style="enable-background:new 0 0 60 40;" xml:space="preserve">
<sodipodi:namedview  bordercolor="#666666" borderopacity="1.0" id="base" inkscape:current-layer="layer6" inkscape:cx="203.33333" inkscape:cy="256" inkscape:document-rotation="0" inkscape:document-units="px" inkscape:guide-bbox="true" inkscape:pageopacity="0.0" inkscape:pageshadow="2" inkscape:window-height="713" inkscape:window-maximized="1" inkscape:window-width="1315" inkscape:window-x="51" inkscape:window-y="27" inkscape:zoom="0.75" pagecolor="#ffffff" showgrid="true" showguides="true" units="px">
	<inkscape:grid  empspacing="4" id="grid10" type="xygrid"></inkscape:grid>
	
		<sodipodi:guide  id="guide832" inkscape:color="rgb(0,0,255)" inkscape:label="" inkscape:locked="true" orientation="0,1" position="448,416">
		</sodipodi:guide>
	
		<sodipodi:guide  id="guide834" inkscape:color="rgb(0,0,255)" inkscape:label="" inkscape:locked="true" orientation="0,1" position="448,96">
		</sodipodi:guide>
	
		<sodipodi:guide  id="guide836" inkscape:color="rgb(0,0,255)" inkscape:label="baseline" inkscape:locked="true" orientation="0,1" position="448,64">
		</sodipodi:guide>
	<sodipodi:guide  id="guide837" orientation="1,0" position="64,512"></sodipodi:guide>
	<sodipodi:guide  id="guide841" orientation="1,0" position="384,512"></sodipodi:guide>
</sodipodi:namedview>
<g id="layer6" inkscape:groupmode="layer" inkscape:label="icon">
	<path id="path2" d="M14.3,0C11.9,0,10,1.9,10,4.3v31.4c0,2.4,1.9,4.3,4.3,4.3h31.4c2.4,0,4.3-1.9,4.3-4.3V4.3C50,1.9,48.1,0,45.7,0
		H14.3z M12.3,5.7h7.5c2.4,0,4.3,0.5,5.7,1.5c1.4,1,2.1,2.4,2.1,4.1c0,1.4-0.5,2.5-1.4,3.4c-0.5,0.5-1,0.9-1.5,1.1
		c-0.5,0.2-1.3,0.5-2.4,0.8l2,2.7c0.4,0.6,1,1.3,1.7,2.1c0.8,0.9,1.7,1.8,2.6,2.8c0.8,0.9,1.5,1.5,1.9,1.9c0.5,0.4,1.2,0.9,2.2,1.4
		h-4.9c-0.8,0-1.7-0.5-2.6-1.4C24.1,25,23,23.6,21.8,22c-0.8-1-1.4-2-2-2.8c-0.5-0.7-1.1-1.7-2-3.1c3.8-0.5,5.7-2,5.7-4.4
		c0-2.3-1.6-3.4-4.8-3.4h-1.2v16.5c0,0.6,0.1,1.1,0.3,1.4c0.2,0.4,0.6,0.8,1.2,1.2h-6.9v0c0.6-0.4,1-0.8,1.2-1.2
		c0.2-0.4,0.3-0.8,0.3-1.4V8.5c0-0.5-0.1-0.9-0.3-1.4c-0.1-0.2-0.3-0.4-0.4-0.6C12.8,6.4,12.6,6.1,12.3,5.7z M34,12.7
		c1.6,0,3,0.7,3.9,2.6c0.8,1.7,1.5,3.4,2.2,5.1c0.1,0.2,0.2,0.5,0.4,0.9c0.5-0.7,1.1-1.3,1.5-2c1.2-1.8,3-4.8,3.4-5.6
		c0.2-0.4,0.5-0.7,0.7-0.8c0.2,0,0.4,0,0.7,0.1c0.2,0.1,0.4,0.5,0.2,1.1c-0.1,0.6-0.2,0.9-0.4,1.3c-1.2,2.6-3,4.9-4.8,7.1
		c-0.4,0.4-0.4,0.7-0.2,1.2c0.8,2,1.6,4,2.5,6c0.3,0.7,0.6,1.3,1,1.9c0.3,0.6,0.6,1,1.6,1c0.4,0,1.3-0.1,1.3,0.5
		c0.1,0.7-0.8,0.8-1.3,0.9c-0.6,0.1-0.8,0.2-1.4,0.2c-1.3,0-2.9-0.5-3.5-1.7c-0.7-1.2-1-2.1-1.6-3.7c-0.4-1.1-0.8-2.1-1.3-3.3
		c-0.3,0.3-0.5,0.5-0.7,0.7c-2,2.7-3.2,4.9-4.1,6.4c-0.7,1.2-0.8,1.7-1.6,1.6c-0.8-0.3-0.5-1.3-0.5-1.6c0.4-1.5,1.5-3,2.3-4.4
		c1-1.5,2.2-2.8,3.2-4.2c0.2-0.2,0.3-0.6,0.2-0.8c-1-2.4-2-4.7-3-7.1c-0.5-1.2-0.9-1.9-3.1-1.8c-0.4,0-0.6-0.1-0.6-0.5
		c0-0.5,0.3-0.7,0.6-0.7C32.5,12.9,33.2,12.7,34,12.7z"/>
</g>
</svg>
