<?xml version="1.0" encoding="utf-8"?>
<!-- Generator: Adobe Illustrator 24.1.0, SVG Export Plug-In . SVG Version: 6.00 Build 0)  -->
<svg version="1.1"
	 id="svg8" xmlns:cc="http://creativecommons.org/ns#" xmlns:dc="http://purl.org/dc/elements/1.1/" xmlns:inkscape="http://www.inkscape.org/namespaces/inkscape" xmlns:rdf="http://www.w3.org/1999/02/22-rdf-syntax-ns#" xmlns:sodipodi="http://sodipodi.sourceforge.net/DTD/sodipodi-0.dtd" xmlns:svg="http://www.w3.org/2000/svg"
	 xmlns="http://www.w3.org/2000/svg" xmlns:xlink="http://www.w3.org/1999/xlink" x="0px" y="0px" viewBox="0 0 60 45"
	 style="enable-background:new 0 0 60 45;" xml:space="preserve">
<sodipodi:namedview  bordercolor="#666666" borderopacity="1.0" id="base" inkscape:current-layer="layer6" inkscape:cx="256" inkscape:cy="256" inkscape:document-rotation="0" inkscape:document-units="px" inkscape:guide-bbox="true" inkscape:pageopacity="0.0" inkscape:pageshadow="2" inkscape:window-height="713" inkscape:window-maximized="1" inkscape:window-width="1315" inkscape:window-x="51" inkscape:window-y="27" inkscape:zoom="0.75" pagecolor="#ffffff" showgrid="true" showguides="true" units="px">
	<inkscape:grid  empspacing="4" id="grid10" type="xygrid"></inkscape:grid>
	
		<sodipodi:guide  id="guide9" inkscape:color="rgb(0,0,255)" inkscape:label="baseline" inkscape:locked="true" orientation="0,1" position="511.99998,64">
		</sodipodi:guide>
</sodipodi:namedview>
<g id="layer6" inkscape:groupmode="layer" inkscape:label="icon">
	<path id="path2" d="M17.3,19.5c-0.9,0-1.7,0.6-2.3,1.3c-0.5,0.5-0.7,1.4-0.7,2.1c0,0.7,0.3,1.5,0.7,2c0.6,0.7,1.2,1.1,2.1,1.1
		c0.8,0,1.8-0.3,2.3-0.9c0.6-0.5,1-1.5,1-2.3c0-0.8-0.2-1.7-0.8-2.3C19.1,20,18.1,19.5,17.3,19.5L17.3,19.5z M33.1,19.7
		c-0.9,0-1.7,0.4-2.2,1.1c-0.5,0.6-0.7,1.2-0.7,2c0,0.8,0.2,1.4,0.7,2c0.6,0.7,1.3,1.1,2.2,1.1c0.8,0,1.5-0.3,2.1-0.9
		c0.6-0.6,0.9-1.3,0.9-2.2c0-0.9-0.3-1.6-0.9-2.2C34.6,20,33.9,19.7,33.1,19.7L33.1,19.7z M30,0C17.6,0,7.5,10.1,7.5,22.5
		S17.6,45,30,45s22.5-10.1,22.5-22.5S42.4,0,30,0z M24.7,29.4h-4.2v-1.7c-0.4,0.5-1.4,1.1-1.9,1.3c-0.8,0.4-1.8,0.7-2.7,0.7
		c-1.6,0-2.9-0.5-4.2-1.6c-1.4-1.3-2.1-3.2-2.1-5.3c0-2.1,0.7-3.9,2.2-5.1c1.2-1,2.6-1.8,4.2-1.8c0.9,0,2,0.1,2.8,0.5
		c0.5,0.2,1.3,0.7,1.7,1.2V8.6h4.2L24.7,29.4L24.7,29.4z M38.9,27.5c-1.4,1.6-3.3,2.4-5.8,2.4c-2.5,0-4.4-0.8-5.8-2.4
		c-1.1-1.3-1.7-2.9-1.7-4.8c0-1.7,0.6-3.2,1.7-4.6c1.4-1.6,3.4-2.4,6-2.4c2.4,0,4.3,0.8,5.7,2.4c1.2,1.3,1.7,2.9,1.7,4.7
		C40.6,24.6,40.1,26.1,38.9,27.5L38.9,27.5z M42.4,9.4c0.5-0.5,1.1-0.7,1.8-0.7c0.7,0,1.3,0.2,1.8,0.7c0.5,0.5,0.7,1.1,0.7,1.8
		c0,0.7-0.2,1.3-0.7,1.8c-0.5,0.5-1.1,0.7-1.8,0.7c-0.7,0-1.3-0.2-1.8-0.7c-0.5-0.5-0.7-1.1-0.7-1.8C41.7,10.4,42,9.9,42.4,9.4
		L42.4,9.4z M46.4,29.4H42V16.1h4.4V29.4z"/>
</g>
</svg>
